<svg width="532" height="263" viewBox="0 0 532 263" fill="none" xmlns="http://www.w3.org/2000/svg">
<path fill-rule="evenodd" clip-rule="evenodd" d="M329.494 3.125C329.15 4.844 328.869 7.817 328.869 9.732C328.869 12.488 329.197 13.088 330.442 12.611C331.306 12.279 334.874 11.245 338.37 10.314L344.725 8.62L351.547 11.797L358.369 14.974L359.001 12.237C359.348 10.732 359.686 7.854 359.751 5.842L359.869 2.183L353.619 4.084C345.308 6.611 343.834 6.516 336.869 3C333.6 1.35 330.744 0 330.523 0C330.301 0 329.838 1.406 329.494 3.125ZM96.4819 3C96.1749 3.825 95.2599 9.9 94.4479 16.5C85.4649 89.544 85.0519 92.2 82.1989 95.177C80.5139 96.936 78.4569 98 76.7409 98C75.2259 98 73.7089 98.45 73.3689 99C72.9659 99.652 77.9089 99.953 87.5599 99.864C95.7049 99.789 101.365 99.534 100.139 99.297C98.9119 99.06 97.0749 97.806 96.0559 96.511C94.2499 94.214 94.2609 93.668 96.5059 74.328C97.7719 63.423 98.8219 52.362 98.8389 49.75C98.8549 47.138 99.2069 45.02 99.6189 45.045C100.031 45.07 106.894 56.176 114.869 69.725C133.15 100.782 134.7 103.222 135.749 102.574C136.22 102.283 136.882 100.347 137.219 98.272C137.793 94.739 142.325 86.282 158.045 59.41C161.613 53.311 164.819 47.574 165.169 46.66C166.362 43.551 167.869 44.988 167.883 49.25C167.891 51.587 168.784 61.15 169.869 70.5C172.459 92.825 172.443 95.485 169.706 97.402C168.516 98.235 167.197 98.703 166.775 98.442C166.353 98.181 165.725 98.425 165.379 98.984C164.961 99.66 171.639 100 185.31 100C198.349 100 205.869 99.634 205.869 99C205.869 98.45 204.498 98 202.821 98C199.482 98 195.139 94.178 194.387 90.578C194.148 89.435 192.797 79.725 191.385 69C189.972 58.275 188.401 46.575 187.893 43C187.385 39.425 185.955 28.73 184.716 19.234C183.441 9.464 182.041 2.109 181.49 2.293C180.955 2.471 176.103 10.227 170.706 19.528C142.94 67.386 140.637 71.173 139.825 70.298C139.418 69.859 132.229 58.25 123.848 44.5C96.0739 -1.069 97.3029 0.795 96.4819 3ZM264.869 17.051C262.394 17.491 248.755 17.885 234.56 17.926C217.627 17.975 208.964 18.344 209.369 19C209.709 19.55 211.075 20 212.405 20C213.929 20 215.478 21 216.596 22.704C218.188 25.132 218.399 28.835 218.668 59.007C218.96 91.96 218.925 92.659 216.845 95.303C215.608 96.876 213.737 98 212.355 98C211.053 98 209.716 98.438 209.386 98.973C208.833 99.867 271.315 101.024 273.874 100.167C274.421 99.983 274.869 99.019 274.869 98.025C274.869 97.03 275.791 91.615 276.919 85.991C278.046 80.367 278.748 75.545 278.477 75.275C278.207 75.005 277.271 76.496 276.397 78.588C274.002 84.32 270.301 88.662 265.327 91.577C261.313 93.93 259.748 94.215 250.111 94.35L239.369 94.5L239.094 78.25L238.819 62H247.44C253.688 62 256.836 62.458 258.879 63.665C261.86 65.426 263.869 68.801 263.869 72.047C263.869 73.121 264.319 74 264.869 74C265.49 74 265.869 68.5 265.869 59.5C265.869 50.5 265.49 45 264.869 45C264.319 45 263.869 45.879 263.869 46.953C263.869 53.675 258.063 57 246.325 57H238.821L239.095 40.256L239.369 23.512L248.869 23.47C254.094 23.446 259.685 23.772 261.294 24.194C265.851 25.388 269.869 29.809 269.869 33.628C269.869 35.418 270.319 37.16 270.869 37.5C271.513 37.898 271.869 34.177 271.869 27.059C271.869 18.812 271.551 16.032 270.619 16.125C269.932 16.194 267.344 16.611 264.869 17.051ZM293.663 55.122C293.932 90.787 293.808 94.41 292.258 96.122C291.324 97.155 289.616 98.007 288.464 98.015C287.312 98.024 285.694 98.467 284.869 99C283.872 99.644 289.998 99.975 303.119 99.985C315.629 99.994 322.869 99.633 322.869 99C322.869 98.45 321.597 98 320.043 98C318.383 98 316.321 97.046 315.043 95.686C312.943 93.45 312.869 92.601 312.869 70.686C312.869 58.063 313.265 48 313.761 48C314.45 48 322.84 54.925 325.869 57.993C326.497 58.629 334.295 65.578 343.633 73.823C349.201 78.738 350.612 80.519 349.975 81.823C347.249 87.397 345.229 91.004 342.671 94.866C337.852 102.143 340.056 101.728 347.781 93.904C362.154 79.346 373.761 62.959 378.857 50.03C381.826 42.498 381.524 40.686 376.655 36.834C374.338 35 370.85 32.04 368.905 30.255C366.96 28.47 365.08 27.007 364.727 27.005C363.845 26.998 363.145 30.286 362.322 38.306C361.645 44.903 361.544 45.102 359.015 44.806C357.173 44.59 356.306 45.015 356.064 46.25C355.81 47.552 356.381 48 358.296 48C360.317 48 360.855 48.483 360.804 50.25C360.7 53.815 355.475 68.251 354.369 68.028C353.44 67.84 347.436 62.632 309.092 28.75C301.156 21.738 294.372 16 294.016 15.999C293.66 15.999 293.501 33.604 293.663 55.122ZM340.205 31.567C339.874 32.429 340.083 33.614 340.669 34.2C342.224 35.755 344.869 34.39 344.869 32.031C344.869 29.565 341.116 29.192 340.205 31.567ZM338.957 47.394C338.062 48.473 338.18 49.168 339.477 50.465C340.912 51.9 341.357 51.941 342.549 50.749C344.114 49.183 343.334 46 341.384 46C340.686 46 339.593 46.627 338.957 47.394ZM398.699 68.049C398.931 77.184 398.669 81.536 397.827 82.551C396.8 83.788 397.458 84 402.318 84C407.494 84 407.869 83.857 406.44 82.429C405.202 81.191 404.869 78.524 404.869 69.863C404.869 63.816 405.335 57.998 405.904 56.934C406.853 55.162 406.581 55 402.654 54.999L398.369 54.997L398.699 68.049ZM412.869 70.3C412.869 77.756 412.461 82.008 411.669 82.8C410.736 83.733 411.669 84 415.869 84C420.069 84 421.002 83.733 420.069 82.8C418.871 81.602 418.318 69 419.464 69C419.791 69 421.928 70.763 424.214 72.917C431.416 79.705 436.345 83.953 437.049 83.977C437.423 83.99 437.481 79.348 437.177 73.661C436.808 66.745 437.009 62.607 437.783 61.161C438.878 59.115 438.728 59 434.963 59C431.019 59 428.9 60.283 430.853 61.49C431.928 62.154 432.306 74 431.253 74C430.738 74 419.58 64.532 415.049 60.25C414.321 59.563 413.533 59 413.298 59C413.062 59 412.869 64.085 412.869 70.3ZM55.1129 111.057C39.9259 112.921 26.6279 118.627 18.4069 126.807C12.5039 132.681 10.8449 135.837 10.1569 142.495C8.20993 161.363 21.9359 172.935 55.1869 180.46C73.6749 184.644 86.8689 194.584 86.8689 204.329C86.8689 217.812 68.0349 224.18 46.6529 217.927C40.5189 216.133 33.6469 211.895 34.8739 210.663C35.1519 210.385 38.8589 211.885 43.1129 213.997C55.8119 220.305 72.2889 220.521 77.6189 214.451C85.4509 205.532 72.1729 187.749 53.8689 182.643C34.8289 177.331 16.0809 181.466 6.97593 192.984C1.45594 199.968 -0.495066 206.431 0.103934 215.76C0.514934 222.158 1.23993 224.53 5.02993 231.878C8.63593 238.866 10.7149 241.533 16.0369 245.997C23.8569 252.555 32.6439 257.095 43.4419 260.156C50.1449 262.056 53.8389 262.406 67.3689 262.422C81.7469 262.438 84.3689 262.164 93.2379 259.712C98.6659 258.212 106.316 255.319 110.238 253.283C118.934 248.77 130.472 237.701 134.24 230.26C138.073 222.689 140.15 211.957 139.377 203.716C138.105 190.147 134.669 182.913 125.207 173.883C113.347 162.566 100.339 156.557 71.3689 149.016C46.9059 142.648 42.5919 140.875 44.4089 137.936C45.4869 136.191 51.0819 137.444 62.8689 142.072C85.0239 150.771 95.9149 153.449 106.661 152.842C112.39 152.518 114.238 151.956 117.335 149.593C121.305 146.566 123.848 141.762 124.531 136C125.724 125.945 111.904 116.012 91.8689 112.523C81.4169 110.703 63.7459 109.998 55.1129 111.057ZM162.763 111.025C154.384 112.422 146.075 119.333 143.82 126.781C141.555 134.263 141.604 145.024 143.983 162.5C145.937 176.857 146.303 183.93 146.337 208L146.378 236.5L149.807 242.834C157.697 257.404 174.756 264.665 194.612 261.903C207.046 260.174 218.046 255.23 225.8 247.887C227.148 246.61 228.39 246.064 228.589 246.66C230.089 251.159 233.917 256.848 236.681 258.684C238.502 259.894 242.55 261.415 245.676 262.064C252.719 263.526 269.384 262.832 273.303 260.913C281.577 256.862 282.686 246.797 276.876 228.5C272.106 213.48 272.166 205.86 277.175 190.309C281.816 175.905 283.865 164 283.854 151.5C283.844 140.396 282.508 134.134 278.44 126.126C272.144 113.733 260.784 108.773 244.075 111.12C227.745 113.414 218.409 124.727 215.091 146.242C213.735 155.035 213.688 158.402 214.751 170.477C216.253 187.545 219.045 199.807 221.985 202.25C224.797 204.587 225.522 204.476 228.521 201.25C235.608 193.627 242.525 172.553 244.951 151.196C246.264 139.634 247.217 137.108 248.727 141.19C250.434 145.803 247.186 164.709 242.232 179C234.313 201.844 223.655 214 211.545 214C206.476 214 201.949 210.99 199.293 205.853C195.838 199.171 196.595 180.221 200.966 163.959C202.069 159.856 203.224 151.775 203.534 146C204.265 132.371 202.194 125.593 195.383 119.328C188.255 112.771 174.024 109.148 162.763 111.025ZM313.587 111.092C304.107 113.324 297.378 120.159 293.745 131.247C288.048 148.635 292.896 183.178 302.165 191.25C304.785 193.532 305.528 193.459 307.268 190.75C309.129 187.853 313.398 171.72 314.944 161.743C316.075 154.439 315.756 141.144 314.258 133.25C313.894 131.328 314.053 130 314.649 130C316.359 130 317.037 133.116 317.596 143.543C318.469 159.808 315.364 174.09 303.458 208.591C294.534 234.447 293.836 247.338 300.924 255.41C305.046 260.104 310.775 262.161 321.369 262.747C335.845 263.548 346.681 259.866 351.79 252.41C358.723 242.293 360.232 226.959 357.489 194.5C356.606 184.05 355.632 166.95 355.324 156.5C354.724 136.148 354.009 131.195 350.733 124.664C346.387 116.003 340.926 112.472 329.601 111.001C321.047 109.89 318.631 109.904 313.587 111.092ZM387.256 110.937C375.393 112.82 364.717 118.672 361.172 125.236C358.707 129.799 358.737 142.255 361.224 146.864C364.122 152.237 370.898 158.981 375.99 161.561C386.074 166.671 408.551 170.65 422.694 169.829L428.369 169.5L428.687 172.811C429.044 176.529 428.594 178.698 423.36 198.497C420.019 211.138 419.696 213.468 420.033 222.555C420.363 231.479 420.774 233.365 423.668 239.243C427.324 246.67 434.365 253.698 442.055 257.594C460.052 266.714 487.04 263.657 491.89 251.95C493.926 247.035 492.659 240.162 488.579 233.991C484.197 227.36 482.143 219.951 480.821 206C479.325 190.2 477.919 178.263 476.669 170.744C476.052 167.029 475.766 163.77 476.034 163.502C476.301 163.234 480.428 162.334 485.204 161.501C515.594 156.201 531.869 144.172 531.869 127.008C531.869 117.967 522.536 110.676 510.869 110.602C500.958 110.539 497.512 112.213 487.346 122.026C472.337 136.514 464.929 139.082 436.237 139.741C409.657 140.352 381.869 136.851 381.869 132.891C381.869 131.708 381.812 131.7 390.129 134.005C394.109 135.108 402.351 136.497 408.446 137.092C423.18 138.531 452.572 137.954 455.713 136.165L458.057 134.829L455.713 132.329C449.015 125.183 430.192 115.658 416.569 112.52C408.632 110.691 393.837 109.892 387.256 110.937Z" fill="black"/>
</svg>
